<svg width="147" height="91" viewBox="0 0 147 91" fill="none" xmlns="http://www.w3.org/2000/svg">
<g filter="url(#filter0_d)">
<path d="M42.8525 16.0177C43.2905 16.0177 43.8082 15.8209 44.3656 15.4667C45.4805 14.7583 46.0379 13.8138 46.0379 12.6725C46.0379 10.9802 45.0823 10.744 44.4851 10.744C43.9276 10.744 43.1711 10.9408 42.7331 11.9641C42.4544 12.6331 42.2155 13.3021 42.096 13.9712C41.9766 14.5222 41.8173 14.6402 41.8173 14.6402H41.2599L41.4988 15.3093C41.6182 15.5848 41.9367 16.0177 42.8525 16.0177Z" fill="url(#paint0_linear)"/>
<path d="M41.1404 41.3232C42.0164 41.3232 43.0118 40.7723 44.1665 39.5916C45.2416 38.4896 46.1972 37.2696 47.0732 35.9315C47.7899 34.8296 48.5464 33.5309 49.3029 32.1534C49.1835 32.8225 49.1039 33.4915 48.9844 34.2393L48.0686 40.0639C47.113 40.851 45.9583 42.071 44.724 43.7633C41.8969 47.502 39.9459 51.1621 38.9106 54.6254C38.5523 55.8848 38.3532 56.9474 38.3532 57.8132C38.3532 59.899 39.4283 61.001 41.4589 61.001C44.4054 61.001 46.7945 57.7345 48.8251 51.044C50.0993 46.9904 51.6124 39.3948 53.4041 28.454C54.6385 28.3359 55.8728 28.0211 57.1071 27.5488L57.346 27.4701L57.4257 25.5417L56.8284 25.8172C55.7932 26.2894 54.7579 26.5649 53.6828 26.683C54.1607 23.8101 54.519 21.5274 54.7977 19.9532L55.6737 19.7564H55.7135C58.4211 18.93 60.7703 16.7261 62.6816 13.1841C64.2344 10.2718 65.0308 7.51689 65.0308 4.95879C65.0308 0.86582 63.0797 0 61.487 0C60.2527 0 59.098 0.550976 58.0229 1.65293C57.0275 2.71553 56.1515 4.05361 55.4348 5.62783C53.6828 9.3666 51.9707 16.1751 50.4178 25.7778L49.94 26.7617H49.1039C48.9446 26.7617 48.4668 26.8404 48.4668 27.6275C48.4668 28.4146 48.9048 28.4934 49.1039 28.4934L48.7853 29.1624C47.6704 31.4057 46.3167 33.6883 44.7638 35.9709C42.8127 38.8045 41.8571 39.2374 41.4191 39.2374C41.22 39.2374 40.6626 39.2374 40.6626 37.5058C40.6626 36.1283 40.8617 34.5147 41.22 32.7437C41.4191 31.6024 41.6182 30.6973 41.7775 29.9889C41.9367 29.2411 42.1756 28.2572 42.4942 27.0766C42.7729 25.8959 43.0118 24.9907 43.1313 24.361C43.2507 23.7313 43.3304 23.1017 43.3304 22.5113C43.3304 21.921 43.2507 21.4094 43.1313 20.9765C42.7331 19.6777 41.9766 19.4022 41.4589 19.4022C41.0209 19.4022 40.4237 19.6384 40.1848 20.7403C40.0653 21.1732 39.9857 21.6061 39.8662 22.0784C39.7866 22.5113 39.6672 22.9049 39.5875 23.2197C39.5079 23.4952 39.3884 23.9281 39.269 24.5185C37.7559 29.8314 37.0392 33.767 37.0392 36.1677C37.0392 40.4181 39.269 41.3232 41.1404 41.3232ZM44.724 54.586C43.7285 57.4196 42.534 58.8758 41.1802 58.8758C41.021 58.8758 40.4635 58.8758 40.4635 57.4196C40.4635 56.239 41.3395 53.8383 43.0516 50.2963C44.4851 47.3053 45.9981 44.8652 47.5112 43.0549C46.6352 47.935 45.7194 51.8311 44.724 54.586ZM58.1424 6.02139C59.1378 3.30586 60.3323 1.92842 61.6463 1.92842C62.4427 1.92842 62.8408 2.87295 62.8408 4.76201C62.8408 6.84785 62.0843 9.32724 60.6111 12.1215C59.0184 15.1912 57.1868 17.1196 55.1561 17.7887C56.1117 12.7118 57.1071 8.73691 58.1424 6.02139Z" fill="url(#paint1_linear)"/>
<path d="M58.7795 26.7617C57.8238 28.9656 57.346 30.894 57.346 32.4289C57.346 33.9638 57.5053 35.2625 57.8238 36.2857C58.8193 39.5916 61.1685 41.2839 64.8317 41.2839C66.1457 41.2839 67.5393 40.6935 68.9727 39.5916C70.3663 38.4896 71.6006 37.2696 72.5961 35.9315C73.273 35.0264 73.9897 34.0031 74.7064 32.8618C74.4277 34.1605 74.2286 35.1838 74.0693 35.8922C73.7906 37.1516 73.6711 37.978 73.6711 38.4503C73.6711 38.9619 73.7508 39.4342 73.9499 39.8671C74.3878 40.969 75.1444 41.2052 75.662 41.2052C76.2194 41.2052 76.6574 40.7723 76.8963 39.9458C77.7325 37.2303 79.0066 33.8457 80.6392 29.8708C81.6346 27.3914 82.7097 25.3449 83.8644 23.7707C84.9394 22.2752 85.9349 21.4881 86.7312 21.4881C87.0099 21.4881 87.5674 21.4881 87.5674 22.6687C87.5674 23.692 87.0896 26.014 86.0941 29.6347C85.0987 33.2947 84.6209 36.089 84.6209 37.978C84.6209 42.0316 86.4127 42.8975 87.9257 42.8975C88.4035 42.8975 88.8415 42.74 89.2397 42.4645C89.6379 42.1497 89.837 41.8349 89.837 41.4413V41.0477H89.4388C88.9212 41.0477 88.6424 40.0245 88.6424 38.2142C88.6424 36.7974 89.0804 34.2393 89.9166 30.5792C90.7926 26.8404 91.2306 24.4397 91.2306 23.3378C91.2306 22.1571 90.912 21.2126 90.2351 20.5042C89.5582 19.7958 88.6424 19.4416 87.5275 19.4416C84.7005 19.4416 82.0328 22.0784 79.3252 27.4701C79.7632 25.0694 80.241 22.472 80.7586 19.6777C82.1522 18.9693 83.5856 17.4738 85.0987 15.0731C87.2488 11.6886 88.6026 8.38271 89.1202 5.19492C89.2397 4.52588 89.2795 3.93555 89.2795 3.38457C89.2795 0.590332 87.8461 0 86.6117 0C84.82 0 83.2273 1.49551 81.8735 4.48652C81.1966 5.94267 80.5993 7.47754 80.0817 9.05176C79.5641 10.626 79.0066 12.6331 78.4492 15.1912C77.8519 17.8674 77.3343 20.0713 76.9361 21.921C76.6972 23.1017 76.3787 24.4791 76.0602 26.0533L75.5425 27.1159C74.7064 29.005 73.1933 31.4844 71.083 34.4754C70.1274 35.7741 69.0921 36.8761 67.9374 37.7812C66.8226 38.6471 65.7873 39.1193 64.7919 39.1193C62.3232 39.1193 61.1287 37.3483 61.1287 33.7276C61.1287 31.0908 61.8454 28.3359 63.1992 25.5417C64.553 22.8262 66.0262 21.4487 67.5791 21.4487C67.9773 21.4487 68.3754 21.5668 68.3754 22.4326C68.3754 23.2984 68.1763 24.1643 67.7384 25.0694C67.3004 26.014 67.0615 26.2107 66.9818 26.2501H66.504L66.7031 26.7617C66.942 27.4701 67.4198 27.5488 67.6985 27.5488C68.4551 27.5488 69.132 27.234 69.7292 26.683C70.2867 26.132 70.6848 25.463 70.8441 24.7546C71.0034 24.0462 71.1228 23.2984 71.1228 22.5113C71.1228 21.6455 70.7645 20.8584 70.0478 20.15C69.4505 19.599 68.6143 19.2842 67.5791 19.2842C66.6235 19.2842 65.628 19.5203 64.6326 19.9532C62.1241 21.1732 60.1731 23.4559 58.7795 26.7617ZM86.7312 1.92842C87.1294 2.1252 87.3285 2.63682 87.3285 3.46328C87.3285 5.58848 86.3728 8.50078 84.5014 12.1608C83.3866 14.286 82.3115 15.8603 81.316 16.8835C83.8245 4.21103 85.7756 2.04648 86.7312 1.92842Z" fill="url(#paint2_linear)"/>
<path d="M96.7253 41.2445C99.0746 41.2445 101.822 38.4503 105.047 32.7044C104.888 33.767 104.848 34.7509 104.848 35.6167C104.848 39.4342 106.242 41.3626 108.949 41.3626C109.825 41.3626 110.821 40.8116 111.975 39.631C113.05 38.529 114.006 37.309 114.882 35.9709C115.439 35.1051 116.037 34.1212 116.634 33.0192C116.475 34.2786 116.355 35.3412 116.355 36.1677C116.355 40.4181 118.585 41.3232 120.456 41.3232C121.332 41.3232 122.328 40.7723 123.483 39.5916C124.558 38.4896 125.513 37.2696 126.389 35.9315C127.026 34.9477 127.663 33.8457 128.34 32.665C127.743 36.207 127.424 38.2142 127.424 38.6471C127.424 40.7329 128.42 41.1658 129.216 41.1658C129.654 41.1658 130.252 40.9297 130.49 39.749C130.65 39.0406 131.207 37.2696 132.242 34.4754C133.238 31.6811 134.592 28.6901 136.264 25.6204C138.255 21.9603 139.529 21.1732 140.246 21.1732C140.684 21.1732 141.082 21.3307 141.082 22.3539C141.082 23.3771 140.564 25.7385 139.569 29.4379C138.534 33.216 138.016 36.0496 138.016 37.9387C138.016 41.9923 139.808 42.8581 141.321 42.8581C141.799 42.8581 142.237 42.7007 142.635 42.4252C143.033 42.1103 143.232 41.7955 143.232 41.4019V41.0084H142.834C142.316 41.0084 142.037 39.9851 142.037 38.1748C142.037 36.758 142.475 34.1605 143.391 30.5005C144.307 26.7224 144.745 24.2823 144.745 23.141C144.745 21.921 144.426 20.9371 143.789 20.2287C143.152 19.481 142.197 19.1268 141.042 19.1268C138.374 19.1268 135.706 21.8816 132.919 27.5095L133.278 25.6598C133.397 24.9907 133.477 24.4004 133.477 23.8101C133.477 23.2197 133.397 22.6687 133.198 22.1571C132.76 20.8584 132.003 20.6223 131.486 20.6223C131.088 20.6223 130.371 20.819 130.172 21.9997C129.893 23.4559 129.654 24.8333 129.415 26.132L127.902 29.2018C126.787 31.445 125.434 33.7276 123.881 36.0103C121.93 38.8438 120.974 39.2768 120.536 39.2768C120.337 39.2768 119.78 39.2768 119.78 37.5451C119.78 36.1677 119.979 34.5541 120.337 32.7831C120.536 31.6418 120.735 30.7366 120.894 30.0282C121.054 29.2805 121.293 28.2966 121.611 27.1159C121.89 25.9353 122.129 25.0301 122.248 24.4004C122.368 23.7707 122.447 23.141 122.447 22.5507C122.447 21.9603 122.368 21.4487 122.248 21.0158C121.85 19.7171 121.094 19.4416 120.576 19.4416C120.138 19.4416 119.541 19.6777 119.302 20.7797C119.182 21.2126 119.103 21.6455 118.983 22.1178C118.904 22.59 118.784 22.9442 118.704 23.2591C118.625 23.5346 118.505 23.9675 118.386 24.5578C118.266 25.0301 118.147 25.5417 118.028 25.9746L116.395 29.2018C115.28 31.445 113.926 33.7276 112.374 36.0103C110.423 38.8438 109.467 39.2768 109.029 39.2768C108.392 39.2768 108.272 38.2142 108.272 37.309C108.272 36.9548 108.312 36.3644 108.392 35.5773C108.471 34.7509 109.069 31.6811 110.184 26.4469C110.303 25.8565 110.343 25.3449 110.343 24.8727C110.343 22.8262 109.427 22.3933 108.71 22.3933C107.834 22.3933 107.317 23.5346 107.038 24.4004C106.64 25.5417 105.326 28.1392 103.096 32.1141C102.061 34.0031 100.946 35.656 99.7515 37.0728C98.318 38.7258 97.4421 39.08 96.9642 39.08C96.2475 39.08 96.0883 37.7419 96.0883 36.6006C96.0883 33.5702 96.8846 30.3037 98.4773 26.9191C100.11 23.3378 101.902 21.5668 103.813 21.5668C104.33 21.5668 104.689 21.6455 104.928 21.8423C105.246 22.0784 105.246 22.2752 105.246 22.3539C105.246 22.8655 105.565 23.1804 106.082 23.2197C106.361 23.2197 106.56 23.1804 106.759 23.0229C106.879 22.9049 106.998 22.7475 106.998 22.4326C106.998 21.6849 106.68 20.9765 106.082 20.3861C105.485 19.7958 104.649 19.481 103.614 19.481C102.658 19.481 101.663 19.6777 100.707 20.0713C98.0393 21.2126 95.8494 23.7313 94.1372 27.4701C92.9029 30.225 92.3056 32.7831 92.3056 35.1051C92.3853 39.1193 93.8585 41.2445 96.7253 41.2445Z" fill="url(#paint3_linear)"/>
<path d="M122.208 16.0177C122.646 16.0177 123.164 15.8209 123.721 15.4667C124.836 14.7583 125.394 13.8138 125.394 12.6725C125.394 10.9802 124.438 10.744 123.841 10.744C123.283 10.744 122.527 10.9408 122.089 11.9641C121.81 12.6331 121.571 13.3021 121.452 13.9712C121.332 14.5222 121.173 14.6402 121.173 14.6402H120.656L120.894 15.3093C120.974 15.5848 121.293 16.0177 122.208 16.0177Z" fill="url(#paint4_linear)"/>
<path d="M38.3532 74.4999C33.3362 71.4302 27.0849 72.4534 21.6299 70.9185C15.6573 69.2656 10.9987 65.0152 7.01698 60.4893C6.97716 60.45 6.89753 60.4893 6.93734 60.5681C10.72 66.0385 16.2148 70.6037 22.8643 72.0205C26.5275 72.8076 30.3499 72.6895 33.9733 73.6734C35.9642 74.185 37.955 75.0509 39.4283 76.4677C39.707 76.7432 40.3441 77.2941 40.3839 77.7664C40.4237 78.5929 39.4681 79.4193 38.7115 79.4587C38.0745 79.498 37.1985 79.1045 37.0392 78.4748C36.88 77.8057 37.8754 77.058 38.4726 77.4909C38.7912 77.727 39.1097 77.2154 38.8708 76.9399C36.9596 75.0509 34.3316 79.38 37.7957 80.3245C39.1894 80.7181 41.1006 80.0097 41.4191 78.4354C41.6978 76.7432 39.6273 75.287 38.3532 74.4999Z" fill="url(#paint5_linear)"/>
<path d="M143.033 55.3731C141.321 53.8383 138.175 53.8776 137.339 56.357C136.622 58.4429 138.772 60.6074 140.723 59.6629C141.321 59.3874 140.923 58.4429 140.285 58.679C138.812 59.23 137.857 56.908 138.971 56.0028C139.728 55.3731 140.763 55.3731 141.599 55.8454C142.913 56.5932 144.028 58.4822 143.75 60.0564C143.232 62.8507 138.454 64.3068 136.184 64.8578C130.849 66.1959 125.115 65.4088 119.819 63.8739C109.467 60.8829 99.7913 55.688 88.7619 56.908C85.9747 57.2228 82.8291 57.8525 79.8826 58.9151C78.9668 59.1119 77.9714 59.3874 76.976 59.7022C75.6222 60.1351 74.1888 60.6468 72.7553 61.2371C71.2821 61.8274 69.8089 62.4965 68.2958 63.2049C65.2697 64.5823 62.1241 66.0778 58.9387 67.4159C55.7533 68.7146 52.5281 69.8559 49.4224 70.525C47.9093 70.8398 46.4361 71.076 45.0425 71.2334C44.3258 71.194 43.6489 71.1153 42.9322 71.1153C42.3349 71.076 41.7775 71.076 41.1802 71.0366C40.145 70.6824 39.0301 70.3676 37.8754 70.0527C36.4818 69.6985 35.0484 69.3443 33.5751 69.0295C30.6286 68.3604 27.5229 67.7308 24.4968 66.9043C21.4707 66.1172 18.5242 65.1333 15.9361 63.9133C14.5424 63.2836 13.2683 62.5752 12.1136 61.8274C12.1534 61.7881 12.1932 61.7881 12.233 61.7487C14.7017 62.89 17.4491 63.5197 20.1567 63.5197C23.4615 63.5197 26.6469 62.5752 29.9119 62.1816C31.7037 61.9849 34.4909 61.5519 35.8845 62.9294C37.0392 64.0707 36.2031 65.4875 34.8095 65.881C34.2918 65.9991 33.814 66.0385 33.2566 65.9204C32.6593 65.9204 32.2213 65.6056 32.0222 64.9759C32.3806 64.661 32.7788 64.3462 33.1371 64.0313C33.6547 64.2281 34.0131 63.5591 33.5751 63.2836C32.4204 62.5752 30.987 63.3623 30.987 64.7397C30.987 66.3533 32.6593 67.1404 34.0927 67.1011C35.6456 67.0617 37.517 66.2746 37.6365 64.5036C37.7559 62.8507 36.3623 61.5913 34.8493 61.1977C32.6593 60.6074 30.111 61.0797 27.9211 61.5126C25.1737 62.0242 22.4263 62.6933 19.5992 62.6539C18.9622 62.6539 18.3649 62.5752 17.7676 62.5358C19.2011 62.4178 20.6345 62.1029 21.6299 61.3945C24.656 61.67 28.0007 61.119 29.8721 58.5216C30.0314 58.2854 29.8323 58.01 29.6332 57.9706C27.5229 57.3409 25.1737 57.6558 23.3421 58.9545C22.6652 59.4268 22.1874 60.0171 21.6299 60.5287C21.4707 60.5287 21.3114 60.5287 21.1521 60.5681C20.8336 60.5681 20.7141 60.9616 20.8336 61.1584C20.5549 61.3158 20.2761 61.4732 19.9178 61.5913C18.7233 61.9455 17.4491 62.1423 16.2148 62.2603C14.9008 61.9849 13.6665 61.5519 12.4719 61.001C12.4719 60.8829 12.4321 60.7648 12.3923 60.6861C13.8257 60.7648 15.3388 60.45 16.6926 60.0958C19.4798 59.4267 22.0281 58.0493 23.3023 55.4125C23.4217 55.2157 23.3819 54.8615 23.1032 54.7435C20.5549 53.7202 17.7676 53.4447 15.0999 54.1925C13.8656 54.5467 12.4719 55.0583 11.5562 55.9635C11.158 56.357 10.9987 56.7506 10.72 57.1835C10.0033 58.2461 9.08748 58.5216 8.17168 58.2854C7.49479 57.7345 6.89753 57.1835 6.26045 56.5538C5.14557 54.6254 4.54831 52.5002 4.54831 50.1782C4.54831 47.8956 4.78721 45.7704 5.2252 43.9207C7.49479 46.5182 10.72 47.8169 14.8212 47.8169C17.8871 47.8169 20.5947 47.2659 22.9041 46.2033C25.2135 45.1014 27.0849 43.6059 28.4387 41.6774C29.7527 39.749 30.7481 37.6238 31.3852 35.3018C32.0222 32.9799 32.3408 30.5398 32.3408 28.0604C32.3408 25.6204 31.8232 20.9765 30.8277 14.2467C32.8186 12.397 34.3316 10.6653 35.3669 9.13047C36.442 7.47754 36.9994 5.82461 36.9596 4.13232C36.88 2.95166 36.5216 2.00713 35.9243 1.22002C35.2873 0.43291 34.3715 0.0393555 33.2566 0.0393555C29.1952 0 27.0849 3.81748 27.0849 11.4131C27.0849 12.4757 27.1645 13.5776 27.284 14.6796L21.1123 19.7564C19.6391 18.4971 17.688 17.8674 15.3388 17.8674C13.5868 17.8674 11.8747 18.2609 10.3218 19.0087C8.76894 19.7564 7.41515 20.819 6.34009 22.0784C5.26502 23.3378 4.26959 25.0301 3.35379 27.0766C2.43799 29.1624 2 31.5237 2 34.1605C2 36.9154 2.55744 39.3555 3.63251 41.4413C2.79635 43.9207 2.35836 46.7149 2.35836 49.6666C2.35836 52.7363 3.23434 55.5699 4.9863 58.0887C5.58356 58.9938 6.30027 59.7022 7.01698 60.2926C9.56529 63.6378 13.6266 66.3533 17.1704 68.1637C23.4217 71.3121 30.1508 71.7057 36.9198 71.9418C37.079 71.9811 37.2383 72.0205 37.3976 72.0599C38.7115 72.4534 39.9459 72.847 41.1006 73.2799C43.3702 74.1457 45.1619 75.1689 46.3565 76.0348C46.675 76.2315 46.9139 76.4677 47.1926 76.6644C47.4315 76.8612 47.6306 77.0186 47.8297 77.1761C47.989 77.3335 48.1482 77.4516 48.2677 77.5696C48.3871 77.6877 48.4668 77.7664 48.5066 77.8451C49.3826 78.7503 50.1391 79.6161 50.7364 80.2851C50.816 80.3639 50.8956 80.4426 50.9753 80.5213C51.0151 80.5606 51.0549 80.6 51.0947 80.6C51.1345 80.6 51.1345 80.6 51.1744 80.6393H51.254C51.2142 80.718 51.2142 80.8361 51.2142 80.9148C51.2142 80.9935 51.254 81.0329 51.2938 81.1116C51.3336 81.1903 51.4929 81.3084 51.7318 81.269C51.8513 81.269 51.9309 81.2297 51.9707 81.1903C52.0105 81.151 52.0503 81.151 52.13 81.1116C52.2096 81.0329 52.2892 80.9148 52.3291 80.7968C52.4087 80.5606 52.4087 80.4032 52.4087 80.2458C52.4087 80.1671 52.3689 80.0884 52.3689 80.0097C52.3689 79.9703 52.3291 79.8916 52.3291 79.8522C52.2892 79.7342 52.2892 79.6161 52.2494 79.498C52.0105 78.5141 51.2938 77.2941 50.2586 76.2315C50.1789 76.1528 50.0993 76.0741 49.9798 75.9167C49.8604 75.7986 49.6613 75.6412 49.4622 75.4444C49.2631 75.2476 49.0242 75.0509 48.7455 74.8541C48.6659 74.7754 48.5862 74.736 48.5066 74.6573C50.3382 74.8147 52.13 74.7754 53.9616 74.5786C54.8774 75.1689 55.8728 75.838 56.5497 76.6644C56.8682 76.9399 57.0673 77.2941 57.1868 77.727C56.8682 78.278 56.5497 78.8683 56.1913 79.4193C55.2755 78.829 55.0366 78.278 55.4348 77.6877C55.5144 77.5303 55.5941 77.4122 55.7135 77.2548C55.8728 77.0186 55.5941 76.7431 55.3552 76.8219C53.9616 77.2154 53.8421 79.2225 54.957 80.049C56.271 81.0329 58.0229 80.0884 58.222 78.5535C58.4609 76.7038 56.7488 75.3657 55.2357 74.4212C56.8682 75.0509 58.4211 75.838 59.8943 76.8219C61.6463 78.0025 65.2697 80.718 64.8317 83.1974C64.5928 84.5749 63.0797 85.7949 61.7259 85.9523C60.8898 86.0704 59.974 85.7556 59.536 84.9684C58.8989 83.8665 60.3722 82.2923 61.487 83.1974C61.925 83.591 62.5621 82.9613 62.1639 82.5284C60.8101 81.151 58.3017 82.2136 58.3017 84.142C58.2618 86.464 60.9296 87.4872 62.8408 86.7788C64.7122 86.0704 66.4244 83.9846 65.9068 81.9381C65.3095 79.5767 62.801 77.4515 60.9296 76.1135C59.7351 75.287 58.5007 74.5786 57.1868 73.9883C58.1424 73.7521 59.0582 73.4766 59.974 73.1225C63.8363 71.6269 67.2605 69.2263 71.2025 67.9275C73.3526 67.2191 75.7018 66.7862 77.9316 67.2191C78.3696 67.2978 79.2854 67.4159 79.6039 67.8095C80.1613 68.5572 79.803 69.8559 79.0863 70.3676C78.5288 70.8005 77.4936 70.9579 76.9361 70.4463C76.3787 69.9347 76.8565 68.6753 77.6529 68.6753C78.0909 68.6753 78.0909 68.0062 77.6927 67.9275C74.7462 67.3372 75.0249 72.9257 78.7677 71.7057C80.2808 71.2334 81.6346 69.423 80.9179 67.8095C80.1613 65.9598 77.3343 65.8811 75.662 65.9598C69.1718 66.1565 64.0353 70.8398 58.0628 72.7682C57.3062 73.0044 56.5497 73.2012 55.7533 73.3586C54.0014 72.6895 52.13 72.1779 50.2586 71.8237C53.4041 71.2727 56.6293 70.2495 59.7749 69.0688C63.0797 67.8488 66.2651 66.432 69.331 65.1333C70.645 64.5823 71.9192 64.0707 73.1137 63.5591C72.9942 63.6378 72.9146 63.7165 72.9146 63.7558C72.9544 63.7952 73.1535 63.7559 73.5119 63.5984C73.7508 63.5197 73.9897 63.441 74.1888 63.3229C74.5073 63.2049 74.8258 63.1262 75.1444 63.0081C76.538 62.5358 78.6085 61.9849 81.117 61.7487C83.6255 61.5126 86.5719 61.6307 89.7175 62.1816C92.8232 62.7326 96.1281 63.7165 99.3533 64.9365C102.578 66.1565 105.804 67.5733 108.87 68.8721C110.422 69.5411 111.896 70.1314 113.409 70.7218C114.882 71.2727 116.315 71.745 117.709 72.1386C120.456 72.8863 122.925 73.2012 124.836 73.2012C125.314 73.2012 125.752 73.1618 126.15 73.1618C126.548 73.1618 126.907 73.0831 127.186 73.0437C127.504 73.0044 127.743 72.965 127.942 72.9257C128.141 72.8863 128.3 72.847 128.42 72.8076C130.052 72.4534 131.486 71.7057 132.322 70.9579C132.441 70.8792 132.521 70.7611 132.641 70.6824C132.68 70.6431 132.72 70.6037 132.8 70.5643C132.879 70.4856 132.919 70.4463 132.999 70.3676C133.118 70.2101 133.238 70.0527 133.317 69.7772C133.357 69.6592 133.357 69.4624 133.317 69.3443C133.317 69.2656 133.278 69.2263 133.238 69.1475C133.198 69.0688 133.158 68.9901 133.039 68.9114C132.879 68.754 132.641 68.754 132.561 68.7934C132.441 68.8327 132.402 68.8721 132.362 68.9508C132.282 69.0295 132.242 69.1475 132.203 69.2656L132.123 69.1869C132.083 69.1869 132.083 69.1869 132.043 69.1869C132.003 69.1869 131.924 69.1869 131.884 69.2263C131.765 69.2656 131.645 69.2656 131.526 69.305C130.57 69.5805 129.336 69.8953 127.942 70.2101C127.862 70.2495 127.743 70.2495 127.544 70.2889C127.385 70.3282 127.146 70.3676 126.907 70.4069C126.668 70.4463 126.349 70.4856 125.991 70.525C125.633 70.5643 125.274 70.6037 124.836 70.6037C123.164 70.6431 120.894 70.4463 118.306 69.7772C116.992 69.4624 115.639 69.0295 114.205 68.5572C112.772 68.0456 111.259 67.4946 109.706 66.8649C106.6 65.6449 103.335 64.3462 99.9904 63.2049C97.5615 62.3784 95.1327 61.7094 92.7436 61.1977C92.7436 61.1584 92.7436 61.1584 92.7436 61.119C92.664 60.8829 92.5445 60.7255 92.4251 60.5681C92.3454 60.4893 92.3056 60.45 92.226 60.3713C92.1862 60.3319 92.1464 60.2926 92.0667 60.2532C91.9871 60.1745 91.8676 60.0958 91.7482 60.0171C90.8722 59.348 89.4388 58.7184 87.7664 58.4822C87.647 58.4822 87.4877 58.4429 87.2886 58.4035C87.0896 58.3641 86.8108 58.3642 86.5321 58.3248C86.333 58.3248 86.0543 58.2854 85.8154 58.2854C88.8813 57.6951 92.0269 57.4983 95.1327 57.7738C102.698 58.4035 109.666 61.7487 116.793 64.11C123.283 66.2746 130.371 67.7308 137.06 65.9204C139.529 65.2514 142.953 63.992 144.466 61.7094C145.661 59.8203 144.705 56.8686 143.033 55.3731ZM23.0633 59.9384C23.7004 59.3874 24.457 58.9545 25.2533 58.679C26.4478 58.2461 27.6822 58.2461 28.9165 58.5216C27.2043 60.3319 24.8949 60.4106 22.5457 60.4893C22.705 60.2926 22.8643 60.0958 23.0633 59.9384ZM33.3362 2.1252C33.9733 2.1252 34.8493 2.36133 34.8493 4.28975C34.8493 6.25752 33.4158 8.69756 30.5888 11.5705C30.4694 10.4686 30.4295 9.56338 30.4295 8.85498C30.4295 4.40781 31.3852 2.1252 33.3362 2.1252ZM51.4929 80.6C51.4929 80.6393 51.4929 80.6393 51.4929 80.6V80.6ZM22.2272 55.4125C21.1123 57.3409 19.1613 58.3642 17.0111 58.9545C15.1397 59.4268 12.5914 60.0564 10.7598 59.1513C13.547 57.9706 16.374 57.1441 19.2807 56.239C19.7585 56.0815 19.5594 55.4519 19.0816 55.5306C16.5333 55.9635 13.985 56.8293 11.5163 57.7738C13.5072 54.2712 18.6834 54.1138 22.2272 55.4125ZM20.8336 25.0694C20.8336 27.2733 19.9974 29.2805 18.3251 31.0515C17.2102 32.2715 15.9759 32.9012 14.6619 32.9012H14.1841L14.2637 33.3734C14.3434 33.8063 14.5026 34.1605 14.7814 34.3967C15.0203 34.6328 15.3786 34.7509 15.8166 34.7509C17.4889 34.7509 19.002 34.2393 20.316 33.2554C21.5901 32.2715 22.5059 31.1302 22.9837 29.8314C23.5013 28.5721 23.7402 27.0766 23.7402 25.463C23.7402 23.9281 23.3023 22.5507 22.4661 21.2913L27.4831 17.159C28.0405 22.9049 28.3192 26.3682 28.3192 27.5488C28.3192 32.4289 27.284 36.6793 25.2135 40.1032C24.1782 41.8349 22.7448 43.2123 20.9132 44.1962C19.0816 45.1801 16.9315 45.6917 14.5026 45.6917C10.6005 45.6917 7.81332 44.3143 5.98173 41.4807C7.17625 38.0567 9.00784 34.8296 11.5163 31.8779C13.9452 29.005 16.9713 26.014 20.515 22.9836C20.7539 23.6526 20.8336 24.361 20.8336 25.0694ZM4.86685 29.3592C6.06136 25.5811 8.01241 22.8262 10.6802 21.2519C12.1136 20.3861 13.7461 19.9532 15.5379 19.9532C17.1306 19.9532 18.4047 20.3861 19.3603 21.2126C12.0738 27.3914 7.13643 33.216 4.70758 38.6471C4.3094 37.309 4.11032 35.8922 4.11032 34.3573C4.11032 32.6257 4.34922 30.9727 4.86685 29.3592ZM13.4276 65.0152C11.9543 63.992 10.6802 62.8113 9.44583 61.5913C9.68474 61.67 9.92364 61.7094 10.1625 61.7881C11.6358 62.9687 13.4276 64.11 15.3786 65.1333C18.0066 66.5107 21.0327 67.6127 24.0588 68.5179C27.0053 69.3837 29.9517 70.1314 32.7788 70.8398C29.3545 70.6824 25.97 70.3282 22.6652 69.3837C19.4002 68.4391 16.2546 66.9436 13.4276 65.0152ZM47.1926 73.7915C46.5157 73.3586 45.7194 72.9257 44.8434 72.4928C45.3212 72.4928 45.8388 72.4534 46.3167 72.4141C46.8343 72.4534 47.3121 72.5321 47.8297 72.6108C47.8297 72.6895 47.9093 72.7289 47.989 72.7289C48.4668 72.7289 48.9446 72.7682 49.4224 72.847C49.7808 72.9257 50.1391 72.965 50.4975 73.0437C51.254 73.2405 51.9707 73.4767 52.6476 73.8308C50.816 73.9883 48.9844 73.9489 47.1926 73.7915Z" fill="url(#paint6_linear)"/>
</g>
<defs>
<filter id="filter0_d" x="0" y="0" width="147" height="91" filterUnits="userSpaceOnUse" color-interpolation-filters="sRGB">
<feFlood flood-opacity="0" result="BackgroundImageFix"/>
<feColorMatrix in="SourceAlpha" type="matrix" values="0 0 0 0 0 0 0 0 0 0 0 0 0 0 0 0 0 0 127 0"/>
<feOffset dy="2"/>
<feGaussianBlur stdDeviation="1"/>
<feColorMatrix type="matrix" values="0 0 0 0 0 0 0 0 0 0 0 0 0 0 0 0 0 0 0.2 0"/>
<feBlend mode="normal" in2="BackgroundImageFix" result="effect1_dropShadow"/>
<feBlend mode="normal" in="SourceGraphic" in2="effect1_dropShadow" result="shape"/>
</filter>
<linearGradient id="paint0_linear" x1="73.5" y1="0" x2="73.5" y2="87" gradientUnits="userSpaceOnUse">
<stop stop-color="#FFD233"/>
<stop offset="1" stop-color="#26FFEB"/>
</linearGradient>
<linearGradient id="paint1_linear" x1="73.5" y1="0" x2="73.5" y2="87" gradientUnits="userSpaceOnUse">
<stop stop-color="#FFD233"/>
<stop offset="1" stop-color="#26FFEB"/>
</linearGradient>
<linearGradient id="paint2_linear" x1="73.5" y1="0" x2="73.5" y2="87" gradientUnits="userSpaceOnUse">
<stop stop-color="#FFD233"/>
<stop offset="1" stop-color="#26FFEB"/>
</linearGradient>
<linearGradient id="paint3_linear" x1="73.5" y1="0" x2="73.5" y2="87" gradientUnits="userSpaceOnUse">
<stop stop-color="#FFD233"/>
<stop offset="1" stop-color="#26FFEB"/>
</linearGradient>
<linearGradient id="paint4_linear" x1="73.5" y1="0" x2="73.5" y2="87" gradientUnits="userSpaceOnUse">
<stop stop-color="#FFD233"/>
<stop offset="1" stop-color="#26FFEB"/>
</linearGradient>
<linearGradient id="paint5_linear" x1="73.5" y1="0" x2="73.5" y2="87" gradientUnits="userSpaceOnUse">
<stop stop-color="#FFD233"/>
<stop offset="1" stop-color="#26FFEB"/>
</linearGradient>
<linearGradient id="paint6_linear" x1="73.5" y1="0" x2="73.5" y2="87" gradientUnits="userSpaceOnUse">
<stop stop-color="#FFD233"/>
<stop offset="1" stop-color="#26FFEB"/>
</linearGradient>
</defs>
</svg>
